<?xml version="1.0" standalone="no"?>
<!DOCTYPE svg PUBLIC "-//W3C//DTD SVG 20010904//EN"
 "http://www.w3.org/TR/2001/REC-SVG-20010904/DTD/svg10.dtd">
<svg version="1.0" xmlns="http://www.w3.org/2000/svg"
 width="500.000000pt" height="500.000000pt" viewBox="0 0 500.000000 500.000000"
 preserveAspectRatio="xMidYMid meet">

<g transform="translate(0.000000,500.000000) scale(0.100000,-0.100000)"
fill="#000000" stroke="none">
<path d="M2820 3767 l0 -384 63 -27 c133 -56 286 -180 373 -301 62 -88 120
-215 150 -330 23 -86 27 -121 27 -255 1 -173 -10 -241 -63 -377 -86 -225 -278
-414 -512 -507 -146 -57 -227 -71 -428 -70 -168 0 -194 3 -285 27 -227 61
-416 187 -541 363 -193 269 -222 697 -69 1008 91 185 215 311 387 394 l97 47
0 383 c1 251 -2 382 -9 382 -19 0 -144 -37 -210 -63 -233 -89 -408 -203 -585
-381 -244 -245 -386 -515 -457 -868 -20 -99 -23 -142 -23 -353 0 -250 6 -305
51 -486 116 -469 418 -840 848 -1044 277 -132 537 -183 871 -172 205 7 346 31
528 91 482 158 827 489 1001 959 119 321 142 696 65 1071 -88 427 -351 818
-701 1042 -83 54 -226 126 -314 159 -60 23 -239 75 -256 75 -5 0 -8 -173 -8
-383z"/>
</g>
</svg>
